<?xml version="1.0" encoding="utf-8"?><svg version="1.1" id="Layer_1" xmlns="http://www.w3.org/2000/svg" xmlns:xlink="http://www.w3.org/1999/xlink" x="0px" y="0px" viewBox="0 0 60 53.5" style="enable-background:new 0 0 60 53.5;" xml:space="preserve"><style type="text/css">.st0{opacity:0.3;fill:#007082;}.st1{opacity:0.8;fill:#FFFFFF;}.st2{opacity:0.3;}.st3{fill:#1693A7;}.st4{fill:#009EB5;}.st5{opacity:0.3;fill:#FFFFFF;}.st6{fill:none;}.st7{opacity:0.3;fill:#1693A7;}.st8{fill:#00BED9;}.st9{fill:#127A8B;}.st10{opacity:0.6;fill:#FFFFFF;}.st11{opacity:0.5;fill:#FFFFFF;}</style><g><path class="st0" d="M31.4,28.6c-0.2,0.3-0.5,0.5-0.9,0.5h-1.2c-0.4,0-0.7-0.2-0.9-0.5c-2.5,0.6-4.4,2.9-4.4,5.7c0,0.4,0,0.8,0.1,1.2l0.2-0.1c0.7-0.4,1.5-0.1,1.8,0.6l0.2,0.4c0.4,0.7,0.1,1.5-0.6,1.8l-0.2,0.1c1.1,1.1,2.5,1.8,4.2,1.8c1.6,0,3.1-0.7,4.2-1.8L34,38.3c-0.7-0.4-0.9-1.2-0.6-1.8l0.2-0.4c0.4-0.7,1.2-0.9,1.8-0.6l0.2,0.1c0.1-0.4,0.1-0.8,0.1-1.2C35.8,31.6,34,29.3,31.4,28.6z"/><circle class="st1" cx="5.1" cy="42.6" r="1.8"/><circle class="st1" cx="51.2" cy="42.6" r="1.8"/><g class="st2"><path class="st3" d="M31.6,21.8c0,0.5-0.4,1-1,1h-1.2c-0.5,0-1-0.4-1-1v-8.3c0-0.5,0.4-1,1-1h1.2c0.5,0,1,0.4,1,1V21.8z"/></g><circle class="st4" cx="30" cy="6.6" r="6.6"/><circle class="st5" cx="27.2" cy="4" r="1.7"/><path class="st3" d="M10.9,41.4c0.5,0.3,1.1,0.1,1.3-0.4l7.4-12.8c0.3-0.5,0.1-1.1-0.4-1.3l-1.7-1c-0.5-0.3-1.1-0.1-1.3,0.4L8.8,39.1c-0.3,0.5-0.1,1.1,0.4,1.3L10.9,41.4z"/><line class="st6" x1="18.4" y1="26.5" x2="18.4" y2="26.5"/><path class="st3" d="M50.8,40.4c0.5-0.3,0.6-0.9,0.4-1.3l-7.4-12.8c-0.3-0.5-0.9-0.6-1.3-0.4l-1.7,1c-0.5,0.3-0.6,0.9-0.4,1.3L47.8,41c0.3,0.5,0.9,0.6,1.3,0.4L50.8,40.4z"/><path class="st7" d="M31.6,28.2c0,0.5-0.4,1-1,1h-1.2c-0.5,0-1-0.4-1-1v-4.4c0-0.5,0.4-1,1-1h1.2c0.5,0,1,0.4,1,1V28.2z"/><path class="st8" d="M26.3,10.7c-0.5-0.3-1.1-0.1-1.3,0.4l-7.8,13.5c-0.3,0.5-0.1,1.1,0.4,1.3l1.7,1c0.5,0.3,1.1,0.1,1.3-0.4L28.4,13c0.3-0.5,0.1-1.1-0.4-1.3L26.3,10.7z"/><path class="st8" d="M32,11.7c-0.5,0.3-0.6,0.9-0.4,1.3l7.8,13.5c0.3,0.5,0.9,0.6,1.3,0.4l1.7-1c0.5-0.3,0.6-0.9,0.4-1.3L35,11.1c-0.3-0.5-0.9-0.6-1.3-0.4L32,11.7z"/><path class="st7" d="M8.9,47.4c-0.7,0.4-1.5,0.1-1.8-0.6l-0.2-0.4c-0.4-0.7-0.1-1.5,0.6-1.8l17.1-9.1c0.7-0.4,1.5-0.1,1.8,0.6l0.2,0.4c0.4,0.7,0.1,1.5-0.6,1.8L8.9,47.4z"/><path class="st7" d="M53,46.8c-0.4,0.7-1.2,0.9-1.8,0.6L34,38.3c-0.7-0.4-0.9-1.2-0.6-1.8l0.2-0.4c0.4-0.7,1.2-0.9,1.8-0.6l17.1,9.1c0.7,0.4,0.9,1.2,0.6,1.8L53,46.8z"/><circle class="st9" cx="53.1" cy="46.5" r="6.9"/><circle class="st5" cx="50.1" cy="43.8" r="1.7"/><circle class="st9" cx="6.9" cy="46.5" r="6.9"/><circle class="st5" cx="4.1" cy="43.8" r="1.7"/><path class="st3" d="M47.5,47.5c0,0.5-0.4,1-1,1H13.4c-0.5,0-1-0.4-1-1v-1.9c0-0.5,0.4-1,1-1h33.1c0.5,0,1,0.4,1,1V47.5z"/><line class="st6" x1="41.6" y1="26.5" x2="41.6" y2="26.5"/><path class="st10" d="M42.7,27.5l-8.8-15.2c-0.1-0.2-0.3-0.3-0.5-0.1c-0.2,0.1-0.3,0.3-0.1,0.5L42,27.9l6.9,12c0.1,0.1,0.2,0.2,0.3,0.2c0.1,0,0.1,0,0.2-0.1c0.2-0.1,0.3-0.3,0.1-0.5L42.7,27.5z"/><path class="st10" d="M26.8,12.7c0.1-0.2,0-0.4-0.1-0.5c-0.2-0.1-0.4,0-0.5,0.1l-8.8,15.2l-6.9,12c-0.1,0.2,0,0.4,0.1,0.5c0.1,0,0.1,0.1,0.2,0.1c0.1,0,0.3-0.1,0.3-0.2l6.9-12L26.8,12.7z"/><path class="st10" d="M45.8,46.2H14.2c-0.2,0-0.4,0.2-0.4,0.4c0,0.2,0.2,0.4,0.4,0.4h31.6c0.2,0,0.4-0.2,0.4-0.4C46.2,46.3,46,46.2,45.8,46.2z"/><circle class="st11" cx="27.4" cy="32.3" r="1.7"/></g></svg>